# xmcd
#
# Track frame offsets: 
#        150
#        26104
#        36523
#        49302
#        60873
#        76306
#        86412
#        105276
#        120045
#        128832
#        142482
#
# Disc length: 2001 seconds
#
# Revision: 0
# Processed by: cddbd v1.5.2PL0 Copyright (c) Steve Scherf et al.
# Submitted via: ExactAudioCopyFreeDBPlugin 1.0
#
DISCID=8b07cf0b
DTITLE=Marty Robbins - More Gunfighter Ballads And Trail Songs
DYEAR=2011
DGENRE=Country
TTITLE0=San Angelo
TTITLE1=Prairie Fire
TTITLE2=Streets Of Laredo
TTITLE3=Songs Of The Bandit
TTITLE4=I've Got No Use For The Women
TTITLE5=Five Brothers
TTITLE6=Little Joe The Wrangler
TTITLE7=Ride, Cowboy Ride
TTITLE8=This Peaceful Sod
TTITLE9=She Was Young And She Was Pretty
TTITLE10=My Love
EXTD=
EXTT0=
EXTT1=
EXTT2=
EXTT3=
EXTT4=
EXTT5=
EXTT6=
EXTT7=
EXTT8=
EXTT9=
EXTT10=
PLAYORDER=
